<mxfile>
    <diagram id="zUqFbWBesndSj5eC6b0c" name="Page-1">
        <mxGraphModel dx="1420" dy="817" grid="1" gridSize="10" guides="1" tooltips="1" connect="1" arrows="1" fold="1" page="1" pageScale="1" pageWidth="827" pageHeight="1169" math="0" shadow="0">
            <root>
                <mxCell id="0"/>
                <mxCell id="1" parent="0"/>
                <mxCell id="2" value="ln" style="ellipse;shape=cloud;whiteSpace=wrap;html=1;" vertex="1" parent="1">
                    <mxGeometry x="354" y="360" width="120" height="80" as="geometry"/>
                </mxCell>
                <mxCell id="3" value="physique" style="rounded=1;whiteSpace=wrap;html=1;" vertex="1" parent="1">
                    <mxGeometry x="260" y="240" width="80" height="40" as="geometry"/>
                </mxCell>
                <mxCell id="4" value="symbolique" style="rounded=1;whiteSpace=wrap;html=1;" vertex="1" parent="1">
                    <mxGeometry x="490" y="240" width="80" height="40" as="geometry"/>
                </mxCell>
                <mxCell id="5" value="source" style="rounded=1;whiteSpace=wrap;html=1;" vertex="1" parent="1">
                    <mxGeometry x="374" y="200" width="80" height="40" as="geometry"/>
                </mxCell>
                <mxCell id="6" value="inode" style="rounded=1;whiteSpace=wrap;html=1;" vertex="1" parent="1">
                    <mxGeometry x="260" y="160" width="80" height="30" as="geometry"/>
                </mxCell>
                <mxCell id="7" value="" style="endArrow=classic;html=1;" edge="1" parent="1" source="3" target="6">
                    <mxGeometry width="50" height="50" relative="1" as="geometry">
                        <mxPoint x="460" y="450" as="sourcePoint"/>
                        <mxPoint x="510" y="400" as="targetPoint"/>
                    </mxGeometry>
                </mxCell>
                <mxCell id="8" value="" style="endArrow=classic;html=1;" edge="1" parent="1" source="5" target="6">
                    <mxGeometry width="50" height="50" relative="1" as="geometry">
                        <mxPoint x="310" y="260" as="sourcePoint"/>
                        <mxPoint x="310" y="200" as="targetPoint"/>
                    </mxGeometry>
                </mxCell>
                <mxCell id="9" value="" style="endArrow=classic;html=1;" edge="1" parent="1" source="2" target="3">
                    <mxGeometry width="50" height="50" relative="1" as="geometry">
                        <mxPoint x="320" y="270" as="sourcePoint"/>
                        <mxPoint x="320" y="210" as="targetPoint"/>
                    </mxGeometry>
                </mxCell>
                <mxCell id="10" value="" style="endArrow=classic;html=1;" edge="1" parent="1" source="2" target="4">
                    <mxGeometry width="50" height="50" relative="1" as="geometry">
                        <mxPoint x="330" y="280" as="sourcePoint"/>
                        <mxPoint x="330" y="220" as="targetPoint"/>
                    </mxGeometry>
                </mxCell>
                <mxCell id="11" value="" style="endArrow=classic;html=1;" edge="1" parent="1" source="4" target="5">
                    <mxGeometry width="50" height="50" relative="1" as="geometry">
                        <mxPoint x="340" y="290" as="sourcePoint"/>
                        <mxPoint x="340" y="230" as="targetPoint"/>
                    </mxGeometry>
                </mxCell>
            </root>
        </mxGraphModel>
    </diagram>
</mxfile>